# xmcd
# Copyright (C) 1995-1998 Ti Kan
#
# Track frame offsets:
#       150
#       16747
#       37950
#       58275
#       78600
#       97852
#       118575
#       135000
#       151012
#       170560
#       188550
#
# Disc length: 2755 seconds
#
# Revision: 0
# Processed by: cddbd v1.5.1PL0 Copyright (c) Steve Scherf et al.
# Submitted via: CD-Transfer v1.0
#
DISCID=770ac10b
DTITLE=Maze - What I Feel
DYEAR=2005
DGENRE=
TTITLE0=Stay In Bed
TTITLE1=Why Don't You Reply?
TTITLE2=It's My Time
TTITLE3=I'm Not The Only One
TTITLE4=Lost Inside Of You
TTITLE5=Cold As Ice
TTITLE6=Lay Aside My Worries
TTITLE7=Scared Of You
TTITLE8=Nobody
TTITLE9=No Solution
TTITLE10=Wild Time
EXTD=
EXTT0=
EXTT1=
EXTT2=
EXTT3=
EXTT4=
EXTT5=
EXTT6=
EXTT7=
EXTT8=
EXTT9=
EXTT10=
PLAYORDER=
